# xmcd
#
# Track frame offsets:
#	150
#	26805
#	43569
#	59671
#	76276
#	92243
#	106759
#	123420
#	137002
#	151236
#	164629
#	180237
#	191730
#	203461
#	213646
#	229088
#	246972
#
# Disc length: 3505 seconds
#
# Revision: 1
# Processed by: cddbd v1.5.2PL0 Copyright (c) Steve Scherf et al.
# Submitted via: audiograbber 1.83.01
#
DISCID=e80daf11
DTITLE=Various Artist - Gold Dance Fever - Disc 2
DYEAR=2005
DGENRE=Disco
TTITLE0=Donna Summer - I Feel Love
TTITLE1=Chic - Dance, Dance, Dance (Yowsah, Yowsah, Yowsah)
TTITLE2=Tavares - Heaven Must Be Missing An Angel
TTITLE3=The Emotions - Best Of My Love
TTITLE4=Rufus featuring Chaka Khan - Tell Me Something Good
TTITLE5=B. T. Express - Do It ('Til Your're Satisfied)
TTITLE6=Shalamar - Second Time Around
TTITLE7=Christie Allen - He's My Number One
TTITLE8=Hot Chocolate - Disco Queen
TTITLE9=Evelyn "Champagne" King - Shame
TTITLE10=5000 Volts - Dr. Kiss Kiss
TTITLE11=Hot Butter - Popcorn
TTITLE12=The Jackson 5 - Dancing Machine
TTITLE13=Ike and Tine Turner - Shake A Tail Feather
TTITLE14=Stephanie Mills - Never Knew Love Like This Before
TTITLE15=Sylvester - You Make Me Feel (Mighty Real)
TTITLE16=Heatwave - Boogie Nights
EXTD=
EXTT0=
EXTT1=
EXTT2=
EXTT3=
EXTT4=
EXTT5=
EXTT6=
EXTT7=
EXTT8=
EXTT9=
EXTT10=
EXTT11=
EXTT12=
EXTT13=
EXTT14=
EXTT15=
EXTT16=
PLAYORDER=
